<svg width="286" height="268" viewBox="0 0 286 268" fill="none" xmlns="http://www.w3.org/2000/svg">
<ellipse cx="143.418" cy="211.106" rx="128.366" ry="56.1453" fill="#E7AC3E"/>
<path d="M189.802 198.665L132.344 169.673C127.481 167.218 123.532 160.63 123.532 154.96V14.892C123.569 9.21577 127.5 6.61081 132.363 9.06569L189.802 38.0579C194.708 40.5182 198.633 47.1056 198.633 52.7765V192.844C198.633 198.515 194.708 201.104 189.802 198.665Z" fill="#B1B4C4"/>
<path d="M190.802 201.19L195.358 199.18L190.992 192.635L190.802 201.19Z" fill="#B1B4C4"/>
<path d="M122.661 10.4647L126.85 8.54578L126.003 13.9433L122.661 10.4647Z" fill="#B1B4C4"/>
<path d="M186.153 200.268L128.702 171.275C123.832 168.82 119.889 162.233 119.889 156.557V16.4893C119.889 10.8238 123.832 8.21346 128.702 10.6683L186.153 39.6606C191.022 42.1155 194.966 48.7029 194.966 54.3738V194.447C194.966 200.118 191.029 202.712 186.153 200.268Z" fill="#616E84"/>
<path d="M194.359 54.7329V194.8C194.359 200.471 190.415 203.076 185.546 200.627L163.014 189.253L156.011 185.721L128.088 171.624C123.225 169.164 119.282 162.581 119.282 156.905V16.8484C119.276 11.1722 123.225 8.57258 128.088 11.0221L185.546 40.0143C190.415 42.4746 194.359 49.0567 194.359 54.7329Z" fill="#20232D"/>
<path d="M190.213 53.3125V189.73C190.213 193.166 187.453 194.554 184.05 192.839L166.087 183.78L164.498 182.976L163.971 182.708L160.089 180.736L148.854 175.076L144.193 172.723L142.316 171.779L129.585 165.347C126.181 163.627 123.421 159.451 123.421 156.005V19.6088C123.421 16.1677 126.181 14.7848 129.585 16.4946L152.018 27.815V27.8686C152.109 29.324 152.59 30.7405 153.423 32.0032C154.256 33.2659 155.418 34.3394 156.814 35.1367C159.47 36.466 161.622 35.3886 161.622 32.714C161.622 32.714 161.622 32.6711 161.622 32.655L184.062 43.9754C187.453 45.6906 190.213 49.8714 190.213 53.3125Z" fill="white"/>
<path d="M158.112 33.7272C158.821 33.3691 158.82 32.2058 158.109 31.1291C157.398 30.0524 156.246 29.4699 155.536 29.8281C154.826 30.1863 154.827 31.3495 155.538 32.4262C156.25 33.5029 157.402 34.0854 158.112 33.7272Z" fill="#2B303F"/>
<path opacity="0.1" d="M156.82 32.5479C156.601 32.419 156.419 32.2472 156.29 32.0463C156.16 31.8453 156.085 31.6206 156.072 31.3901C156.072 30.9667 156.415 30.7898 156.839 31.0042C157.06 31.1319 157.244 31.3031 157.376 31.5041C157.508 31.7052 157.585 31.9305 157.599 32.1619C157.581 32.5854 157.237 32.7569 156.82 32.5479Z" fill="white"/>
<path d="M196.689 73.1606C196.217 73.4018 195.837 73.1606 195.837 72.6246V66.6321C195.841 66.3534 195.921 66.0797 196.069 65.8329C196.217 65.5861 196.429 65.3733 196.689 65.2117C197.155 64.9758 197.535 65.2117 197.535 65.7477V71.7187C197.536 72.0005 197.459 72.2783 197.312 72.529C197.164 72.7798 196.951 72.9962 196.689 73.1606Z" fill="#757B89"/>
<path d="M196.689 82.948C196.217 83.1838 195.837 82.948 195.837 82.3852V76.4141C195.841 76.1362 195.921 75.8632 196.069 75.6173C196.217 75.3714 196.43 75.1596 196.689 74.9991C197.155 74.7633 197.535 74.9991 197.535 75.5351V81.5115C197.535 81.7924 197.457 82.0691 197.31 82.3188C197.163 82.5686 196.95 82.7842 196.689 82.948Z" fill="#757B89"/>
<path d="M139.054 31.3472C134.043 28.8173 129.965 30.8755 129.965 35.9354C129.981 37.344 130.248 38.7419 130.756 40.0787C133.031 46.248 137.392 53.7467 138.674 55.9014C138.76 56.0523 138.891 56.1801 139.054 56.2712C139.111 56.3051 139.178 56.3232 139.247 56.3232C139.316 56.3232 139.383 56.3051 139.44 56.2712C140.722 55.4136 145.082 52.3102 147.358 48.4403C147.914 47.4052 148.184 46.2708 148.149 45.1278C148.149 40.0519 144.07 33.8718 139.054 31.3472ZM139.054 45.2832C137.685 44.5009 136.544 43.449 135.724 42.2119C134.904 40.9748 134.427 39.587 134.332 38.1598C134.332 35.5334 136.454 34.4614 139.054 35.7746C140.43 36.5538 141.577 37.6051 142.403 38.8435C143.229 40.0819 143.71 41.4726 143.807 42.9034C143.807 45.5351 141.66 46.6018 139.054 45.2886V45.2832Z" fill="#DADCE5"/>
<path d="M179.131 133.069L134.362 110.477C131.909 109.255 129.971 105.969 129.971 103.144V75.9693C129.971 73.1446 131.934 71.8474 134.362 73.0695L179.131 95.6673C181.584 96.8894 183.522 100.17 183.522 103V130.17C183.522 132.994 181.56 134.297 179.131 133.069Z" fill="#E9EAF2"/>
<path d="M181.327 57.9006L157.409 45.8299C156.183 45.2189 155.214 43.5787 155.214 42.1637V42.0511C155.214 40.6414 156.195 39.9929 157.409 40.6039L181.327 52.6746C182.553 53.2857 183.522 54.9258 183.522 56.3409V56.4534C183.522 57.8631 182.541 58.5277 181.327 57.9006Z" fill="#E9EAF2"/>
<path d="M181.327 67.956L157.409 55.88C156.183 55.2689 155.214 53.6288 155.214 52.2191V52.0958C155.214 50.6808 156.195 50.0322 157.409 50.6432L181.327 62.7193C182.553 63.3304 183.522 64.9705 183.522 66.3802V66.4928C183.522 67.9185 182.541 68.5671 181.327 67.956Z" fill="#E9EAF2"/>
<path d="M181.327 78.5848L157.409 66.5141C156.183 65.9031 155.214 64.2576 155.214 62.8479V62.7353C155.214 61.3203 156.195 60.6717 157.409 61.2828L181.327 73.3588C182.553 73.9699 183.522 75.61 183.522 77.0251V77.1376C183.522 78.5473 182.541 79.1959 181.327 78.5848Z" fill="#E9EAF2"/>
<path d="M181.327 89.2137L132.154 64.4237C130.928 63.8127 129.959 62.1725 129.959 60.7629V60.6503C129.959 59.2353 130.94 58.5867 132.154 59.1977L181.321 84.0092C182.547 84.6202 183.516 86.2604 183.516 87.6754V87.788C183.522 89.1762 182.541 89.8248 181.327 89.2137Z" fill="#E9EAF2"/>
<path d="M181.327 146.003L132.154 121.192C130.928 120.58 129.959 118.94 129.959 117.525V117.413C129.959 116.003 130.94 115.354 132.154 115.966L181.321 140.777C182.547 141.388 183.516 143.028 183.516 144.443V144.55C183.522 145.965 182.541 146.614 181.327 146.003Z" fill="#E9EAF2"/>
<path d="M181.327 157.473L132.154 132.662C130.928 132.051 129.959 130.411 129.959 128.996V128.883C129.959 127.473 130.94 126.82 132.154 127.436L181.321 152.242C182.547 152.858 183.516 154.499 183.516 155.908V156.021C183.522 157.436 182.541 158.084 181.327 157.473Z" fill="#E9EAF2"/>
<path d="M181.327 168.944L132.154 144.132C130.928 143.516 129.959 141.876 129.959 140.466V140.354C129.959 138.939 130.94 138.29 132.154 138.901L181.321 163.712C182.547 164.323 183.516 165.964 183.516 167.379V167.491C183.522 168.901 182.541 169.555 181.327 168.944Z" fill="#E9EAF2"/>
<path d="M159.856 169.576L132.706 155.876C131.48 155.265 130.511 153.625 130.511 152.21V152.097C130.511 150.688 131.498 150.034 132.706 150.65L159.856 164.345C161.082 164.956 162.051 166.601 162.051 168.011V168.124C162.051 169.533 161.064 170.187 159.856 169.576Z" fill="#E9EAF2"/>
<path d="M183.154 228.879L154.876 214.611L183.154 200.343L211.432 214.611L183.154 228.879Z" fill="#EFDA86"/>
<path d="M209.519 243.78L183.154 257.084V230.477L209.519 217.173V243.78Z" fill="#D1B66B"/>
<path d="M183.154 257.084L156.79 243.78V217.173L183.154 230.477V257.084Z" fill="#E2C979"/>
<path opacity="0.1" d="M156.79 217.173V224.136L183.154 237.284V230.503L156.79 217.173Z" fill="#E7AC3E"/>
<path opacity="0.1" d="M209.519 217.173V224.629L183.154 237.284V230.503L209.519 217.173Z" fill="#E7AC3E"/>
<path d="M154.876 214.611V221.992L183.154 236.067V228.879L154.876 214.611Z" fill="#E2C979"/>
<path d="M183.154 236.067L211.432 222.571V214.611L183.154 228.879V236.067Z" fill="#D1B66B"/>
<path opacity="0.05" d="M183.025 222.217L169.331 215.147L184.16 207.664L197.854 214.734L183.025 222.217Z" fill="#E7AC3E"/>
<path d="M184.804 206.555L169.969 199.072L184.804 191.584L199.633 199.072L184.804 206.555Z" fill="#EFDA86"/>
<path d="M198.627 214.37L184.804 221.343V207.391L198.627 200.412V214.37Z" fill="#D1B66B"/>
<path d="M184.804 221.343L170.975 214.37V200.412L184.804 207.391V221.343Z" fill="#E2C979"/>
<path opacity="0.1" d="M170.975 200.412V204.063L184.804 210.961V207.402L170.975 200.412Z" fill="#E7AC3E"/>
<path opacity="0.1" d="M198.627 200.412V204.325L184.804 210.961V207.402L198.627 200.412Z" fill="#E7AC3E"/>
<path d="M169.969 199.072V202.942L184.804 210.323V206.555L169.969 199.072Z" fill="#E2C979"/>
<path d="M184.804 210.323L199.633 203.242V199.072L184.804 206.555V210.323Z" fill="#D1B66B"/>
<path opacity="0.4" d="M215.443 264.732L195.45 254.688L210.611 247.034L230.597 257.084L215.443 264.732Z" fill="#D6D8E5"/>
<path d="M217.767 248.395L196.83 237.814L211.99 230.166L232.927 240.746L217.767 248.395Z" fill="#EFDA86"/>
<path d="M231.904 256.381L217.768 263.516V249.247L231.904 242.119V256.381Z" fill="#D1B66B"/>
<path d="M217.767 263.516L197.854 253.45V239.187L217.767 249.247V263.516Z" fill="#E2C979"/>
<path opacity="0.1" d="M197.854 239.187V242.923L217.767 252.897V249.263L197.854 239.187Z" fill="#E7AC3E"/>
<path opacity="0.1" d="M231.904 242.119V246.117L217.768 252.897V249.263L231.904 242.119Z" fill="#E7AC3E"/>
<path d="M196.83 237.814V241.77L217.767 252.249V248.395L196.83 237.814Z" fill="#E2C979"/>
<path d="M217.768 252.249L232.928 245.013V240.746L217.768 248.395V252.249Z" fill="#D1B66B"/>
<path d="M57.9055 115.408C58.9419 117.477 61.8489 127.2 64.3142 129.751C66.7796 132.303 79.0328 132.533 79.0328 132.533L77.0335 126.996L69.1836 125.249L65.1421 116.443L57.9055 115.408Z" fill="#BFA591"/>
<path d="M74.0409 123.872C69.3678 124.901 68.27 122.323 67.6506 120.189C66.1665 115.028 65.2343 125.978 67.1906 127.356C69.6008 129.06 70.3797 130.523 75.8746 129.328C78.2173 128.792 80.7808 127.591 85.227 125.785C86.4168 125.303 87.3428 124.976 89.6242 124.048C91.9056 123.121 94.2851 121.567 95.4809 120.05C96.6768 118.533 96.8424 117.825 96.5971 117.477C96.2905 117.043 95.7446 117.139 95.1068 117.777C94.1819 118.853 93.0436 119.775 91.7461 120.5C91.7461 120.5 93.218 119.165 94.0214 118.297C94.7375 117.529 95.3316 116.68 95.7876 115.773C96.2107 114.888 95.3399 113.693 94.6776 114.32C94.0152 114.947 93.7025 115.59 92.4943 116.861C91.8571 117.534 91.1304 118.139 90.3294 118.662C91.0783 117.775 91.7448 116.838 92.3226 115.858C92.8371 115.091 93.0903 114.212 93.0524 113.323C93.0156 112.857 92.2735 112.31 91.5683 113.184C90.955 113.972 90.5318 115.204 89.06 116.539C87.9929 117.509 87.0852 118.061 87.0607 117.793C87.0362 117.525 87.7046 116.995 88.0849 115.869C88.4651 114.743 88.0849 113.548 87.3735 113.42C86.6621 113.291 86.797 113.323 86.2205 114.379C85.644 115.435 84.7732 116.212 84.0986 117.75C83.7372 118.837 83.0783 119.831 82.179 120.645C81.0261 121.711 78.4871 122.891 74.0409 123.872Z" fill="#BFA591"/>
<path opacity="0.4" d="M79.6951 225.851C94.2423 225.851 106.035 219.9 106.035 212.558C106.035 205.217 94.2423 199.265 79.6951 199.265C65.1478 199.265 53.355 205.217 53.355 212.558C53.355 219.9 65.1478 225.851 79.6951 225.851Z" fill="white"/>
<path d="M67.1903 103.08C66.1748 102.668 65.0213 102.596 63.9492 102.879C62.8772 103.161 61.9615 103.779 61.3765 104.613C59.8371 106.843 58.2365 114.476 58.0955 115.778C58.0955 115.778 60.248 118.383 63.4861 117.949L67.1903 103.08Z" fill="#EDEDED"/>
<path d="M79.1248 210.859C81.3943 211.4 83.8162 211.142 85.8708 210.141C87.4959 210.184 96.3393 206.877 97.523 209.653C98.5778 212.086 94.7448 214.338 92.7026 214.772C88.2319 215.721 84.9325 217.666 83.1356 217.988C81.7986 218.234 80.0692 218.401 79.0021 217.479C77.7633 216.385 77.8737 212.306 79.1248 210.859Z" fill="#50555C"/>
<path d="M83.1721 217.323C84.969 216.991 88.2684 215.045 92.7392 214.107C94.4502 213.748 97.4062 212.108 97.7067 210.151C98.0992 212.392 94.6403 214.381 92.7392 214.783C88.2684 215.731 84.969 217.677 83.1721 217.999C81.8352 218.245 80.1058 218.411 79.0387 217.489C78.7627 217.223 78.563 216.904 78.4561 216.557C80.026 217.682 81.8659 217.57 83.1721 217.323Z" fill="#BF4B4B"/>
<path d="M64.7803 205.226C67.0488 205.772 69.4722 205.516 71.5263 204.513C73.1576 204.556 81.9949 201.249 83.1785 204.025C84.2272 206.458 80.4004 208.71 78.3521 209.144C73.8874 210.093 70.5819 212.038 68.7911 212.36C67.4542 212.606 65.7248 212.773 64.6577 211.851C63.425 210.752 63.5354 206.678 64.7803 205.226Z" fill="#50555C"/>
<path d="M68.8339 211.695C70.6247 211.363 73.9302 209.417 78.3948 208.479C80.112 208.12 83.0618 206.48 83.3623 204.524C83.761 206.764 80.296 208.753 78.3948 209.155C73.9302 210.103 70.6247 212.049 68.8339 212.371C67.497 212.617 65.7675 212.783 64.7004 211.861C64.4156 211.597 64.2056 211.277 64.0872 210.929C65.6694 212.054 67.497 211.942 68.8339 211.695Z" fill="#BF4B4B"/>
<path d="M64.6085 184.231C64.989 181.36 65.6726 178.527 66.6507 175.767C66.6507 175.767 66.0374 168.461 65.7369 161.536C65.3874 153.679 62.2719 146.764 64.7312 140.493L92.4756 145.896C92.4756 145.896 90.7953 177.225 90.4273 181.02C90.2264 183.971 89.8167 186.909 89.2008 189.816C87.9313 195.899 85.8768 210.366 85.8768 210.366C82.9392 211.856 79.0879 211.031 79.0879 211.031C79.0879 211.031 79.3025 192.737 79.4927 188.352C79.7196 182.992 79.9097 183.41 79.9097 183.41L78.9898 170.08L78.3765 163.45C78.3765 163.45 77.6099 168.317 77.1131 172.664C76.6777 176.453 75.629 179.878 74.4577 186.937C73.4458 193.058 71.7961 205.354 71.7961 205.354C68.8646 206.844 64.8783 205.606 64.8783 205.606C64.8783 205.606 63.8112 189.542 64.6085 184.231Z" fill="#ADB3BC"/>
<path d="M68.6624 103.209C70.772 103.3 72.342 103.777 72.6119 103.209C72.8367 102.257 72.9965 101.294 73.0902 100.325C72.8449 99.7891 72.6364 99.2156 72.6364 99.2156C69.987 97.7844 69.1469 95.2813 68.7973 92.3601C68.184 87.37 71.2872 83.0069 76.9968 82.4816C82.3629 81.9939 86.3062 85.2903 87.3611 89.8141C87.9314 92.0492 89.0598 96.2729 87.5328 99.9499C86.6803 102.003 85.5764 103.632 84.4664 103.954C83.4028 103.928 82.3419 103.845 81.2897 103.707C81.2897 103.707 81.0014 105.09 80.8052 105.98C80.6089 106.87 80.6887 107.341 82.7125 108.429C84.7363 109.517 79.6461 111.763 76.3283 111.544C73.0105 111.324 69.2572 109.566 68.2331 107.69C67.1108 105.621 67.2089 103.15 68.6624 103.209Z" fill="#BFA591"/>
<path d="M71.7162 103.487C71.1336 104.763 72.6177 106.323 76.5856 107.411C80.5535 108.499 80.9092 107.1 80.9092 107.1C80.9092 107.1 86.7291 109.416 88.6241 110.573C91.0098 112.026 92.0646 116.239 92.3835 123.346C92.7576 131.574 92.7883 143.779 92.4755 145.885C92.4755 145.885 88.0231 149.76 82.3258 149.353C76.6285 148.946 67.0492 144.529 64.7249 141.136C64.7862 133.922 65.749 132.748 64.4121 128.594C61.3457 119.08 59.7451 115.194 61.2292 108.864C62.4558 103.654 64.1729 103.005 66.5279 103.059C68.2649 103.119 69.9969 103.262 71.7162 103.487Z" fill="#00A651"/>
<path d="M101.337 130.148C96.6643 131.177 95.5665 128.604 94.9532 126.471C93.463 121.304 92.6596 116.641 91.5557 113.709C90.2494 110.252 88.8818 109.7 86.9562 109.024C84.6993 108.236 82.7614 109.903 83.5096 114.304C84.3988 119.509 85.564 123.164 87.8025 129.312C88.379 130.92 89.6852 133.777 91.6416 135.16C94.0517 136.864 97.6823 136.768 103.177 135.594C105.526 135.058 109.424 133.436 113.87 131.624C115.06 131.142 115.986 130.82 118.267 129.887C120.549 128.955 122.928 127.406 124.13 125.894C125.332 124.383 125.486 123.664 125.24 123.321C124.934 122.887 124.388 122.984 123.75 123.621C122.824 124.695 121.686 125.616 120.389 126.339C120.389 126.339 121.861 125.004 122.665 124.141C123.382 123.374 123.976 122.524 124.431 121.617C124.854 120.732 123.983 119.532 123.321 120.159C122.658 120.786 122.346 121.435 121.138 122.7C120.499 123.374 119.773 123.98 118.973 124.506C119.721 123.617 120.387 122.678 120.966 121.697C121.481 120.93 121.734 120.051 121.696 119.162C121.659 118.701 120.917 118.154 120.218 119.028C119.604 119.811 119.175 121.043 117.703 122.378C116.636 123.348 115.728 123.906 115.704 123.638C115.679 123.37 116.348 122.834 116.728 121.708C117.108 120.582 116.728 119.387 116.017 119.258C115.305 119.13 115.44 119.162 114.87 120.218C114.3 121.274 113.416 122.051 112.742 123.595C112.378 124.686 111.712 125.682 110.804 126.494C109.663 127.561 105.784 129.173 101.337 130.148Z" fill="#BFA591"/>
<path d="M85.2267 108.322C88.3482 107.92 90.556 109.148 91.9359 113.28C93.3157 117.413 94.2724 120.784 94.2724 120.784C93.039 122.344 91.1694 123.431 89.0474 123.823C85.3125 124.611 83.9695 123.051 83.9695 123.051C83.9695 123.051 82.933 118.721 82.2891 115.773C81.6452 112.825 81.363 108.821 85.2267 108.322Z" fill="#00A651"/>
<path d="M87.183 89.1763C87.183 89.1763 92.0892 82.6264 81.4244 81.2917C73.7155 80.3269 68.7664 84.6525 68.1961 89.3317C67.6441 93.8181 70.8086 98.4759 73.1023 100.325C74.2184 100.673 76.6163 100.861 79.7624 99.6229C79.8913 98.4007 79.9404 97.1731 79.9096 95.946C79.9096 95.946 76.1441 89.0798 87.183 89.1763Z" fill="#2B2A30"/>
<path d="M166.087 183.78L164.499 182.976L163.971 182.708C164.465 182.614 164.927 182.422 165.32 182.145C165.486 182.129 165.811 182.88 166.087 183.78Z" fill="#38226D"/>
<path d="M165.431 182.58C165.144 182.751 164.83 182.885 164.499 182.976L160.089 180.736C159.182 177.032 157.139 168.66 156.048 164.318C154.625 158.653 154.38 155.383 153.644 151.872C152.754 147.622 150.829 127.784 150.829 127.784L150.068 127.822L148.02 150.211C148.648 151.863 149.08 153.568 149.308 155.297C149.749 158.165 149.136 170.069 148.854 175.07L144.193 172.712L142.317 171.768C140.814 164.409 138.287 151.701 138.287 149.112C138.287 146.668 138.772 114.411 138.772 114.411L165.419 120.382C165.333 122.912 164.425 133.895 164.026 139.716C163.628 145.537 163.53 152.66 163.53 152.66C163.53 152.66 164.677 156.895 165.419 161.879C166.161 166.864 165.431 182.58 165.431 182.58Z" fill="#37B9C5"/>
<path d="M158.525 71.4722C158.525 71.4722 158.2 76.9876 158.341 77.4754C158.482 77.9631 161.236 79.5818 162.021 80.1554C162.806 80.7289 157.654 85.1884 155.146 86.1961C152.638 87.2038 144.671 84.5506 144.53 81.1309C144.389 77.7112 145.892 74.849 147.112 74.6989C148.333 74.5488 158.525 71.4722 158.525 71.4722Z" fill="#BFA591"/>
<path d="M141.206 81.7044C140.839 79.2763 142.666 76.9661 140.888 75.0258C134.657 80.3858 135.454 94.4933 134.037 103.53C129.407 107.759 120.11 111.924 117.479 112.953C117.001 113.146 116.584 113.35 116.682 113.795C117.056 115.558 117.638 116.228 118.847 117.933C124.979 115.612 129.438 114.282 137.122 107.899C137.85 107.208 138.503 106.46 139.072 105.664C141.286 99.9016 141.838 85.912 141.206 81.7044Z" fill="#BFA591"/>
<path d="M159.2 78.4294C159.2 78.4294 154.619 84.3951 148.222 84.9526C146.211 83.2213 146.027 77.0412 148.835 75.0687C148.835 75.0687 146.272 73.257 144.542 73.6108C142.659 74.6094 141.257 76.174 140.599 78.0114C138.953 82.1104 138.17 86.436 138.287 90.7789C138.397 96.632 138.287 114.518 138.287 114.518C138.287 114.518 139.189 118.302 144.966 121.116C150.743 123.93 155.042 124.204 158.961 123.405C162.192 122.746 164.866 121.749 165.983 119.696C165.694 115.596 163.597 104.886 164.382 99.7301C165.167 94.5738 166.412 90.7199 166.731 86.5498C167.05 82.3798 166.117 82.4602 163.707 80.9754C162.276 80.0337 160.77 79.1828 159.2 78.4294Z" fill="#D1D5DB"/>
<path d="M144.205 63.2445C144.96 58.9565 148.498 55.7405 153.545 55.9603C155.581 56.0471 157.533 56.6911 159.127 57.8012C160.72 58.9113 161.874 60.4313 162.425 62.1461C162.976 63.8608 162.895 65.6835 162.195 67.3563C161.496 69.029 160.212 70.467 158.525 71.4668C158.347 72.1163 158.083 72.7457 157.74 73.3428C155.956 75.1705 150.546 76.2961 148.995 76.1032C147.002 75.8512 145.929 75.1276 144.972 73.2195C143.267 69.8588 143.807 65.3617 144.205 63.2445Z" fill="#BFA591"/>
<path d="M158.525 71.4668L158.059 67.7148C158.059 67.7148 161.555 59.8142 153.3 61.331C147.854 62.3334 146.487 62.7675 144.825 59.573C143.163 56.3784 149.013 53.5054 155.956 54.3041C158.346 54.5239 160.555 55.5201 162.145 57.0953C163.735 58.6706 164.59 60.7102 164.541 62.8104C164.333 65.1795 163.615 69.9338 158.525 71.4668Z" fill="#50555C"/>
<path d="M135.282 104.844L115.939 95.0829L135.282 85.3224L154.625 95.0829L135.282 104.844Z" fill="#EFDA86"/>
<path opacity="0.4" d="M133.687 100.336C138.26 100.336 141.967 98.536 141.967 96.3158C141.967 94.0956 138.26 92.2958 133.687 92.2958C129.115 92.2958 125.408 94.0956 125.408 96.3158C125.408 98.536 129.115 100.336 133.687 100.336Z" fill="#D6D8E5"/>
<path d="M134.914 100.336C139.486 100.336 143.193 98.416 143.193 96.0478C143.193 93.6796 139.486 91.7598 134.914 91.7598C130.341 91.7598 126.635 93.6796 126.635 96.0478C126.635 98.416 130.341 100.336 134.914 100.336Z" fill="#D9DCE8"/>
<path d="M126.635 96.0478C126.635 96.0294 126.635 93.9038 126.635 93.9038L129.088 94.6879L126.635 96.0478Z" fill="#D9DCE8"/>
<path d="M143.193 93.9038V96.0478L140.127 95.4543L143.193 93.9038Z" fill="#D9DCE8"/>
<path d="M134.914 98.1918C139.486 98.1918 143.193 96.272 143.193 93.9038C143.193 91.5356 139.486 89.6158 134.914 89.6158C130.341 89.6158 126.635 91.5356 126.635 93.9038C126.635 96.272 130.341 98.1918 134.914 98.1918Z" fill="#EFF1F9"/>
<path d="M129.393 97.1198L128.475 96.6615L140.435 90.6878L141.353 91.1461L129.393 97.1198Z" fill="#D3D6E2"/>
<path d="M128.475 96.5838V98.779L129.013 99.2113L129.088 99.2638V97.0469L128.475 96.5838Z" fill="#C5C8D3"/>
<path d="M153.319 115.038L135.282 124.139V105.937L153.319 96.8356V115.038Z" fill="#D1B66B"/>
<path d="M135.282 124.139L117.246 115.038V96.8356L135.282 105.937V124.139Z" fill="#E2C979"/>
<path opacity="0.1" d="M117.246 96.8356V101.595L135.282 110.595V105.953L117.246 96.8356Z" fill="#E7AC3E"/>
<path opacity="0.1" d="M153.319 96.8356V101.938L135.282 110.595V105.953L153.319 96.8356Z" fill="#E7AC3E"/>
<path d="M115.939 95.0829V100.132L135.282 109.759V104.844L115.939 95.0829Z" fill="#E2C979"/>
<path d="M135.282 109.759L154.625 100.529V95.0829L135.282 104.844V109.759Z" fill="#D1B66B"/>
<path d="M168.16 84.0896C165.762 83.4893 167.59 83.9877 165.762 83.4893C159.531 88.8493 160.31 97.9613 158.893 107.025C155.459 111.994 142.691 118.731 142.691 118.731C142.531 119.691 142.918 119.98 144.297 121.947C150.43 119.626 155.6 117.627 163.309 111.227C163.609 110.975 164.057 110.911 164.186 110.563C166.357 104.795 168.792 88.2918 168.16 84.0896Z" fill="#BFA591"/>
<path d="M145.904 118.93C145.598 117.986 144.813 118.217 143.936 118.458C142.978 118.793 141.927 118.872 140.918 118.683C140.084 118.458 139.477 117.825 138.766 117.407C138.352 117.195 137.884 117.079 137.404 117.07C137.447 117.311 137.87 118.721 137.87 118.721C137.87 118.721 133.412 118.758 132.964 118.678C132.811 118.65 132.651 118.666 132.509 118.722C132.366 118.778 132.247 118.872 132.168 118.99C132.089 119.109 132.055 119.246 132.071 119.382C132.086 119.518 132.149 119.647 132.253 119.75C132.155 119.75 132.05 119.75 131.952 119.712C131.038 119.535 130.652 120.784 131.566 120.94C131.811 120.988 132.063 121.009 132.314 121.036C131.701 121.24 131.566 122.108 132.314 122.226L132.547 122.258C132.65 122.295 132.761 122.31 132.872 122.301H133.013C132.993 122.394 132.995 122.49 133.018 122.582C133.041 122.675 133.086 122.762 133.149 122.84C133.212 122.917 133.292 122.982 133.385 123.031C133.477 123.081 133.58 123.113 133.688 123.126C135.865 123.373 139.072 124.134 141.047 122.564C142.414 122.448 143.749 122.133 144.997 121.631C146.26 121.127 146.26 120.061 145.904 118.93Z" fill="#BFA591"/>
<path d="M123.63 114.749C123.526 114.749 123.428 114.749 123.323 114.749C123.451 114.669 123.546 114.555 123.596 114.425C123.646 114.295 123.647 114.154 123.601 114.023C123.554 113.892 123.461 113.777 123.335 113.695C123.209 113.612 123.057 113.567 122.9 113.564C122.434 113.564 117.841 112.728 117.841 112.728L117.289 111.077C117.258 110.986 116.492 111.404 116.467 111.426C116.079 111.648 115.753 111.943 115.513 112.29C115.273 112.637 115.126 113.027 115.081 113.43C115.055 113.997 115.159 114.563 115.385 115.095C115.611 115.627 115.956 116.114 116.4 116.528C117.224 117.257 118.337 117.679 119.509 117.708C120.067 117.74 120.6 117.761 121.085 117.793C121.193 117.801 121.301 117.789 121.404 117.758C121.506 117.727 121.6 117.678 121.68 117.614C121.76 117.551 121.824 117.473 121.868 117.387C121.912 117.3 121.936 117.207 121.937 117.113H122.078C122.19 117.132 122.304 117.132 122.416 117.113H122.649C123.428 117.113 123.489 116.266 122.955 115.955C123.207 115.955 123.458 115.998 123.71 115.998C124.648 116.014 124.568 114.743 123.63 114.749Z" fill="#BFA591"/>
<path d="M138.606 85.3278C138.606 85.3278 136.257 85.226 135.282 84.0253C135.46 81.9778 138.459 74.1951 144.481 73.6162C142.837 74.621 141.534 75.9951 140.71 77.5933C139.63 79.9357 138.606 85.3278 138.606 85.3278Z" fill="#ADB3BC"/>
<path d="M169.245 95.6082C169.245 95.6082 163.235 97.4199 159.004 94.3754C158.544 93.6786 161.457 84.7274 161.457 84.7274C161.457 84.7274 163.977 80.1607 167.927 81.9777C171.876 83.7948 169.245 95.6082 169.245 95.6082Z" fill="#ADB3BC"/>
</svg>
