<svg width="286" height="268" viewBox="0 0 286 268" fill="none" xmlns="http://www.w3.org/2000/svg">
<ellipse cx="143" cy="198" rx="143" ry="70" fill="#E7AC3E"/>
<path d="M234.077 206.302L180.14 174.888C175.57 172.232 171.865 165.095 171.865 158.956V7.30203C171.865 1.16328 175.57 -1.65913 180.14 1.002L234.077 32.3912C238.647 35.0524 242.351 42.189 242.351 48.3278V199.997C242.351 206.136 238.647 208.963 234.077 206.302Z" fill="#B1B4C4"/>
<path d="M235.002 209.039L239.277 206.862L235.177 199.775L235.002 209.039Z" fill="#B1B4C4"/>
<path d="M171.025 2.51402L174.96 0.432495L174.165 6.27892L171.025 2.51402Z" fill="#B1B4C4"/>
<path d="M230.637 208.036L176.7 176.642C172.13 173.986 168.426 166.849 168.426 160.71V9.0358C168.426 2.89705 172.13 0.0746425 176.7 2.73073L230.637 34.125C235.207 36.7861 238.912 43.9178 238.912 50.0616V201.731C238.912 207.875 235.207 210.697 230.637 208.036Z" fill="#616E84"/>
<path d="M238.322 50.4496V202.104C238.322 208.253 234.622 211.07 230.052 208.414L208.898 196.101L202.324 192.286L176.125 177.03C171.555 174.369 167.855 167.237 167.855 161.093V9.42386C167.855 3.28008 171.555 0.462706 176.125 3.1188L230.067 34.508C234.637 37.1742 238.322 44.3008 238.322 50.4496Z" fill="#20232D"/>
<path d="M234.447 48.8873V196.61C234.447 200.325 231.862 201.842 228.662 199.977L211.823 190.184L210.323 189.317L209.823 189.02L206.179 186.903L195.629 180.769L191.254 178.224L189.494 177.216L177.54 170.261C174.345 168.401 171.755 163.875 171.755 160.146V12.4126C171.755 8.68806 174.345 7.1811 177.54 9.04086L198.599 21.2982V21.3587C198.599 24.2567 200.599 27.7797 203.099 29.2261C205.599 30.6726 207.598 29.4983 207.598 26.6053C207.598 26.6053 207.598 26.56 207.598 26.5398L228.662 38.8072C231.862 40.6569 234.447 45.1828 234.447 48.8873Z" fill="white"/>
<path d="M204.312 27.7014C204.979 27.3131 204.978 26.0524 204.31 24.8857C203.642 23.719 202.559 23.0879 201.892 23.4762C201.225 23.8645 201.226 25.1251 201.894 26.2919C202.562 27.4586 203.645 28.0897 204.312 27.7014Z" fill="#2B303F"/>
<path opacity="0.1" d="M203.099 26.4239C202.889 26.287 202.714 26.1019 202.589 25.8837C202.464 25.6656 202.392 25.4206 202.379 25.1689C202.379 24.7103 202.699 24.5238 203.099 24.7556C203.309 24.8914 203.484 25.0755 203.61 25.2927C203.736 25.51 203.809 25.7543 203.824 26.0055C203.824 26.4642 203.494 26.6507 203.099 26.4239Z" fill="white"/>
<path d="M240.527 70.403C240.087 70.6601 239.732 70.403 239.732 69.7982V63.3319C239.74 63.0352 239.815 62.7443 239.953 62.482C240.091 62.2197 240.287 61.9931 240.527 61.8199C240.967 61.5629 241.322 61.8199 241.322 62.4297V68.8961C241.313 69.192 241.237 69.4821 241.099 69.7435C240.961 70.0049 240.765 70.2306 240.527 70.403Z" fill="#757B89"/>
<path d="M240.527 81.0022C240.087 81.2542 239.732 81.0022 239.732 80.3924V73.9261C239.736 73.6251 239.81 73.3293 239.948 73.0624C240.086 72.7955 240.284 72.5649 240.527 72.3889C240.967 72.1368 241.322 72.3888 241.322 72.9987V79.465C241.317 79.766 241.243 80.0618 241.105 80.3287C240.967 80.5956 240.769 80.8262 240.527 81.0022Z" fill="#757B89"/>
<path d="M224.323 187.387L181.9 162.691C179.7 161.411 177.9 157.968 177.9 155.01V75.5993C177.9 72.6358 179.69 71.275 181.9 72.5753L224.323 97.2714C226.528 98.5566 228.322 101.994 228.322 104.957V184.388C228.322 187.306 226.513 188.667 224.323 187.387Z" fill="#E9EAF2"/>
<path d="M198.248 107.018C201.364 105.205 201.364 99.3239 198.248 93.8832C195.132 88.4424 190.08 85.502 186.964 87.3154C183.848 89.1289 183.848 95.0096 186.964 100.45C190.08 105.891 195.132 108.832 198.248 107.018Z" fill="#CED0DB"/>
<path d="M221.823 113.102L205.414 103.551V99.6805L221.823 109.231V113.102Z" fill="#CED0DB"/>
<path d="M218.038 117.86L205.414 110.517V106.646L218.038 113.994V117.86Z" fill="#CED0DB"/>
<path d="M221.823 135.445L184.63 113.798V109.932L221.823 131.574V135.445Z" fill="#CED0DB"/>
<path d="M213.238 137.415L184.63 120.763V116.892L213.238 133.544V137.415Z" fill="#CED0DB"/>
<path d="M221.693 149.3L184.5 127.653V123.782L221.693 145.429V149.3Z" fill="#CED0DB"/>
<path d="M213.113 151.27L184.5 134.618V130.747L213.113 147.399V151.27Z" fill="#CED0DB"/>
<path d="M221.693 163.23L184.5 141.583V137.713L221.693 159.359V163.23Z" fill="#CED0DB"/>
<path d="M221.363 176.964L184.17 155.317V151.452L221.363 173.093V176.964Z" fill="#CED0DB"/>
<path d="M213.113 165.201L184.5 148.549V144.678L213.113 161.33V165.201Z" fill="#CED0DB"/>
<g filter="url(#filter0_d_36_1640)">
<path d="M189.629 68.2157C189.454 68.0966 189.307 67.9408 189.198 67.759C189.088 67.5772 189.019 67.3737 188.994 67.1623L186.325 35.6723L184.225 49.1846C184.175 49.5223 183.9 49.6332 183.58 49.4467L178.475 46.4731C178.285 46.347 178.128 46.1778 178.015 45.9791C177.902 45.7804 177.837 45.5577 177.825 45.329C177.825 44.9107 178.12 44.7393 178.48 44.9459L183.03 47.597L185.825 29.5336C185.875 29.1908 186.17 29.085 186.489 29.2866C186.661 29.4073 186.806 29.563 186.915 29.7435C187.023 29.9241 187.093 30.1255 187.119 30.3349L189.739 61.3613L192.239 42.7838C192.284 42.4411 192.549 42.3251 192.864 42.4965C193.039 42.6079 193.188 42.7553 193.301 42.9291C193.415 43.1029 193.491 43.299 193.524 43.5045L196.524 61.6133L199.444 37.9252C199.484 37.5724 199.764 37.4514 200.089 37.6379C200.262 37.7496 200.41 37.8973 200.522 38.0712C200.634 38.245 200.708 38.4409 200.739 38.6459L204.209 69.3497L207.088 54.2297C207.148 53.9172 207.408 53.8164 207.718 53.9827C208.045 54.2026 208.273 54.5428 208.353 54.9302L211.283 70.1511L213.908 47.2392C213.948 46.8914 214.218 46.7603 214.543 46.9418C214.719 47.0509 214.87 47.1977 214.984 47.3719C215.098 47.5461 215.173 47.7433 215.203 47.9498L218.428 72.1419L220.688 61.5578C220.748 61.2554 220.998 61.1546 221.293 61.3109C221.456 61.4107 221.598 61.5424 221.711 61.6981C221.823 61.8539 221.904 62.0306 221.948 62.2181L224.127 71.2548L228.812 73.9059C229.002 74.0298 229.16 74.197 229.274 74.394C229.388 74.591 229.454 74.8123 229.467 75.0399C229.467 75.4633 229.187 75.6397 228.822 75.4381L223.658 72.5149C223.346 72.3064 223.123 71.9882 223.033 71.6228L221.448 65.0707L218.983 76.6628C218.918 76.9803 218.643 77.0861 218.328 76.8795C218.159 76.765 218.016 76.6162 217.907 76.4426C217.799 76.269 217.727 76.0745 217.698 75.8715L214.653 53.0553L212.153 74.9038C212.113 75.2415 211.858 75.3725 211.543 75.2113C211.369 75.1075 211.219 74.9676 211.102 74.8007C210.986 74.6339 210.906 74.4439 210.868 74.2436L207.823 58.2919L204.754 74.3746C204.689 74.7022 204.404 74.7929 204.089 74.6014C203.921 74.4852 203.779 74.3359 203.671 74.1626C203.563 73.9893 203.49 73.7957 203.459 73.5934L200.124 44.0287L197.324 66.6231C197.284 66.9658 197.019 67.0918 196.699 66.9204C196.525 66.8076 196.376 66.6599 196.262 66.4864C196.148 66.313 196.07 66.1176 196.034 65.9124L193.034 47.6373L190.284 67.9234C190.229 68.2863 189.954 68.4022 189.629 68.2157Z" fill="#FF5A5A"/>
</g>
<path opacity="0.4" d="M109.729 241.628C123.386 241.628 134.457 235.183 134.457 227.233C134.457 219.284 123.386 212.839 109.729 212.839C96.0714 212.839 85 219.284 85 227.233C85 235.183 96.0714 241.628 109.729 241.628Z" fill="white"/>
<path d="M92.1097 120.506C91.8347 122.93 88.9648 133.388 89.5798 136.972C90.1948 140.555 99.9992 146.548 99.9992 146.548L101.359 140.414L95.9295 135.072L97.3944 124.916L92.1097 120.506Z" fill="#BFA591"/>
<path d="M99.6942 110.199C98.2943 109.589 95.6944 109.453 94.2345 111.862C92.7746 114.271 91.2947 122.527 91.1597 123.958C91.1597 123.958 93.1846 126.776 96.2194 126.307L99.6942 110.199Z" fill="#EDEDED"/>
<path d="M110.889 226.8C113.023 227.392 115.302 227.113 117.233 226.024C118.758 226.069 127.053 222.496 128.183 225.495C129.183 228.13 125.578 230.565 123.658 231.039C119.468 232.047 116.368 234.168 114.684 234.526C113.434 234.793 111.809 234.97 110.809 233.977C109.614 232.787 109.714 228.377 110.889 226.8Z" fill="#50555C"/>
<path d="M114.683 233.8C116.368 233.448 119.468 231.341 123.658 230.318C125.268 229.925 128.038 228.151 128.318 226.034C128.688 228.458 125.448 230.61 123.658 231.044C119.468 232.052 116.368 234.173 114.683 234.531C113.433 234.798 111.808 234.975 110.809 233.982C110.551 233.693 110.362 233.348 110.259 232.974C111.718 234.194 113.433 234.068 114.683 233.8Z" fill="#111111"/>
<path d="M97.4343 220.717C99.5673 221.313 101.848 221.036 103.779 219.945C105.309 219.991 113.598 216.417 114.728 219.441C115.728 222.077 112.124 224.512 110.204 224.985C106.014 225.993 102.914 228.115 101.234 228.473C99.9792 228.74 98.3543 228.917 97.3593 227.919C96.1594 226.699 96.2644 222.289 97.4343 220.717Z" fill="#50555C"/>
<path d="M101.234 227.712C102.914 227.354 106.014 225.253 110.204 224.229C111.814 223.836 114.583 222.057 114.863 219.945C115.238 222.37 111.994 224.522 110.204 224.955C106.014 225.963 102.914 228.085 101.234 228.443C99.9792 228.71 98.3542 228.886 97.3593 227.889C97.0976 227.602 96.9088 227.257 96.8093 226.881C98.2642 228.1 99.9792 227.979 101.234 227.712Z" fill="#111111"/>
<path d="M97.2693 198.001C97.6283 194.896 98.2693 191.831 99.1842 188.843C99.1842 188.843 98.6142 180.936 98.3293 173.446C98.0043 164.944 95.0794 157.459 97.3843 150.675L123.413 156.512C123.413 156.512 121.838 190.411 121.488 194.513C121.3 197.707 120.912 200.885 120.328 204.029C119.138 210.611 117.208 226.266 117.208 226.266C114.453 227.878 110.844 226.986 110.844 226.986C110.844 226.986 111.044 207.189 111.219 202.446C111.434 196.655 111.609 197.099 111.609 197.099L110.749 182.68L110.189 175.503C110.189 175.503 109.469 180.769 108.999 185.472C108.589 189.574 107.609 193.284 106.499 200.914C105.549 207.537 103.999 220.843 103.999 220.843C101.249 222.455 97.4993 221.12 97.4993 221.12C97.4993 221.12 96.5244 203.747 97.2693 198.001Z" fill="#ADB3BC"/>
<path d="M101.069 110.34C103.069 110.441 104.529 110.955 104.779 110.34C104.991 109.309 105.141 108.265 105.229 107.215C104.999 106.636 104.804 106.016 104.804 106.016C102.304 104.469 101.529 101.757 101.199 98.6019C100.644 93.2041 103.534 88.4765 108.889 87.9121C113.923 87.4081 117.628 90.9361 118.613 95.8501C119.148 98.2643 120.208 102.836 118.773 106.812C117.973 109.035 116.943 110.799 115.908 111.142C114.912 111.113 113.919 111.025 112.933 110.879C112.933 110.879 112.668 112.391 112.483 113.339C112.298 114.286 112.373 114.811 114.273 115.995C116.173 117.179 111.398 119.599 108.274 119.362C105.149 119.125 101.649 117.225 100.684 115.189C99.6191 112.946 99.7091 110.275 101.069 110.34Z" fill="#BFA591"/>
<path d="M103.939 110.638C103.389 112.018 104.784 113.707 108.509 114.886C112.233 116.066 112.563 114.549 112.563 114.549C112.563 114.549 118.023 117.069 119.798 118.303C122.033 119.881 123.023 124.437 123.328 132.128C123.673 141.029 123.703 154.234 123.413 156.512C123.413 156.512 119.238 160.705 113.913 160.262C108.589 159.818 99.5792 155.055 97.4143 151.371C97.4743 143.569 98.3792 142.299 97.1243 137.803C94.2545 127.511 92.7445 123.298 94.1245 116.459C95.2744 110.819 96.8843 110.118 99.0942 110.174C100.716 110.242 102.333 110.397 103.939 110.638Z" fill="#00A651"/>
<path d="M131.727 139.487C127.343 140.6 126.313 137.813 125.728 135.505C124.333 129.916 123.583 124.871 122.543 121.7C121.318 117.961 120.043 117.361 118.233 116.635C116.113 115.778 114.293 117.583 114.998 122.34C115.833 127.975 116.928 131.916 118.998 138.594C119.543 140.333 120.763 143.428 122.598 144.92C124.858 146.764 128.268 146.684 133.422 145.393C135.622 144.839 138.032 143.514 142.192 141.558C143.307 141.054 144.192 140.686 146.317 139.678C148.442 138.67 150.691 136.992 151.816 135.354C152.941 133.716 153.086 132.945 152.856 132.572C152.571 132.103 152.061 132.204 151.461 132.894C150.596 134.06 149.527 135.058 148.307 135.838C148.307 135.838 149.691 134.396 150.441 133.459C151.114 132.628 151.673 131.709 152.101 130.727C152.496 129.769 151.681 128.474 151.061 129.155C150.441 129.835 150.146 130.53 149.012 131.901C148.412 132.63 147.729 133.285 146.977 133.852C147.68 132.896 148.307 131.884 148.852 130.828C149.571 129.346 149.561 128.585 149.531 128.086C149.501 127.587 148.802 126.992 148.147 127.935C147.552 128.787 147.147 130.117 145.792 131.564C144.792 132.612 143.937 133.217 143.912 132.924C143.887 132.632 144.517 132.058 144.877 130.838C145.237 129.618 144.877 128.318 144.207 128.187C143.537 128.056 143.667 128.086 143.127 129.225C142.587 130.364 141.767 131.211 141.127 132.879C140.572 134.346 140.322 134.94 139.322 136.009C138.277 137.148 135.897 138.428 131.727 139.487Z" fill="#BFA591"/>
<path d="M116.613 115.869C119.543 115.436 121.613 116.766 122.903 121.237C124.193 125.707 125.103 129.381 125.103 129.381C123.943 131.066 122.189 132.24 120.198 132.662C116.698 133.519 115.433 131.831 115.433 131.831C115.433 131.831 114.434 127.144 113.854 123.953C113.274 120.763 112.989 116.423 116.613 115.869Z" fill="#00A651"/>
<path d="M118.443 95.1596C118.443 95.1596 123.073 88.0683 113.048 86.6218C105.819 85.5836 101.169 90.2658 100.634 95.3461C100.134 100.2 103.089 105.24 105.229 107.241C106.274 107.619 108.524 107.835 111.479 106.48C111.597 105.158 111.642 103.83 111.614 102.503C111.614 102.503 108.089 95.0286 118.443 95.1596Z" fill="#111111"/>
<path opacity="0.4" d="M196.049 252C202.662 252 208.023 248.879 208.023 245.03C208.023 241.18 202.662 238.059 196.049 238.059C189.436 238.059 184.075 241.18 184.075 245.03C184.075 248.879 189.436 252 196.049 252Z" fill="#D6D8E5"/>
<path d="M197.829 251.551C204.442 251.551 209.803 248.431 209.803 244.581C209.803 240.731 204.442 237.611 197.829 237.611C191.216 237.611 185.854 240.731 185.854 244.581C185.854 248.431 191.216 251.551 197.829 251.551Z" fill="#D9DCE8"/>
<path d="M185.854 244.47V240.972L189.659 242.258L185.854 244.47Z" fill="#D9DCE8"/>
<path d="M209.793 241.219V244.359L205.409 243.492L209.793 241.219Z" fill="#D9DCE8"/>
<path d="M197.829 247.968C204.442 247.968 209.803 244.847 209.803 240.998C209.803 237.148 204.442 234.027 197.829 234.027C191.216 234.027 185.854 237.148 185.854 240.998C185.854 244.847 191.216 247.968 197.829 247.968Z" fill="#EFF1F9"/>
<path d="M189.979 246.259L188.679 245.503L205.564 235.68L206.858 236.436L189.979 246.259Z" fill="#D3D6E2"/>
<path d="M188.679 245.503V249.082L189.859 249.787L190.024 249.868V246.259L188.679 245.503Z" fill="#C5C8D3"/>
<path opacity="0.4" d="M146.489 224.862C153.102 224.862 158.463 221.741 158.463 217.891C158.463 214.042 153.102 210.921 146.489 210.921C139.876 210.921 134.514 214.042 134.514 217.891C134.514 221.741 139.876 224.862 146.489 224.862Z" fill="#D6D8E5"/>
<path d="M148.269 224.413C154.883 224.413 160.244 221.292 160.244 217.443C160.244 213.593 154.883 210.472 148.269 210.472C141.656 210.472 136.295 213.593 136.295 217.443C136.295 221.292 141.656 224.413 148.269 224.413Z" fill="#D9DCE8"/>
<path d="M136.295 217.327V213.824L140.1 215.114L136.295 217.327Z" fill="#D9DCE8"/>
<path d="M172.045 198.209V201.349L167.661 200.477L172.045 198.209Z" fill="#D9DCE8"/>
<path d="M148.269 220.83C154.883 220.83 160.244 217.709 160.244 213.859C160.244 210.01 154.883 206.889 148.269 206.889C141.656 206.889 136.295 210.01 136.295 213.859C136.295 217.709 141.656 220.83 148.269 220.83Z" fill="#EFF1F9"/>
<path d="M140.42 219.121L139.125 218.365L156.004 208.542L157.304 209.298L140.42 219.121Z" fill="#D3D6E2"/>
<path d="M139.125 218.365V221.943L140.3 222.644L140.465 222.73V219.121L139.125 218.365Z" fill="#C5C8D3"/>
<path opacity="0.4" d="M259.251 232.42C265.864 232.42 271.225 229.299 271.225 225.449C271.225 221.6 265.864 218.479 259.251 218.479C252.637 218.479 247.276 221.6 247.276 225.449C247.276 229.299 252.637 232.42 259.251 232.42Z" fill="#D6D8E5"/>
<path d="M261.026 231.971C267.639 231.971 273 228.85 273 225.001C273 221.151 267.639 218.03 261.026 218.03C254.412 218.03 249.051 221.151 249.051 225.001C249.051 228.85 254.412 231.971 261.026 231.971Z" fill="#D9DCE8"/>
<path d="M249.056 224.89C249.056 224.859 249.056 221.387 249.056 221.387L252.866 222.677L249.056 224.89Z" fill="#D9DCE8"/>
<path d="M272.995 221.639V224.779L268.61 223.907L272.995 221.639Z" fill="#D9DCE8"/>
<path d="M261.026 228.387C267.639 228.387 273 225.267 273 221.417C273 217.568 267.639 214.447 261.026 214.447C254.412 214.447 249.051 217.568 249.051 221.417C249.051 225.267 254.412 228.387 261.026 228.387Z" fill="#EFF1F9"/>
<path d="M253.181 226.679L251.881 225.923L268.76 216.1L270.06 216.856L253.181 226.679Z" fill="#D3D6E2"/>
<path d="M251.881 225.923V229.501L253.061 230.202L253.226 230.288V226.679L251.881 225.923Z" fill="#C5C8D3"/>
<path opacity="0.4" d="M61.2414 187C72.9727 187 82.4828 181.668 82.4828 175.091C82.4828 168.514 72.9727 163.182 61.2414 163.182C49.5101 163.182 40 168.514 40 175.091C40 181.668 49.5101 187 61.2414 187Z" fill="#D6D8E5"/>
<path d="M82.4828 131.763H43.5403C43.5403 131.763 43.6733 165.136 43.573 171.468C43.5471 171.753 43.5396 172.039 43.5505 172.324C43.5505 172.384 43.5505 172.43 43.5403 172.459H43.5567C43.7101 175.243 45.603 177.999 49.2435 180.123C56.8458 184.561 69.1814 184.561 76.7734 180.134C80.4139 178.009 82.2986 175.254 82.4603 172.469H82.4828V131.763Z" fill="#FF5A5A"/>
<path d="M63.0115 142.912C73.7652 142.912 82.4828 137.807 82.4828 131.51C82.4828 125.213 73.7652 120.108 63.0115 120.108C52.2579 120.108 43.5403 125.213 43.5403 131.51C43.5403 137.807 52.2579 142.912 63.0115 142.912Z" fill="white"/>
<path d="M83.4965 133.398C83.2913 133.939 83.0312 134.457 82.7203 134.944C82.099 135.907 81.3376 136.772 80.4613 137.508C80.2025 137.737 79.9294 137.958 79.6398 138.174C79.0637 138.607 78.4615 139.005 77.8368 139.364C77.7012 139.442 77.5677 139.518 77.426 139.592C77.1488 139.747 76.8613 139.897 76.5676 140.04C75.8673 140.384 75.1301 140.701 74.3764 140.984C74.0951 141.091 73.8117 141.19 73.5221 141.289C72.7972 141.534 72.0517 141.748 71.2878 141.938C71.0311 142.004 70.7723 142.066 70.5115 142.122C69.764 142.289 69.0069 142.427 68.2402 142.534C67.9794 142.573 67.7206 142.61 67.4598 142.641C66.7082 142.733 65.9552 142.802 65.2008 142.847C64.9421 142.862 64.6833 142.876 64.4205 142.882C63.6647 142.915 62.9069 142.919 62.1615 142.903C61.9007 142.903 61.6419 142.888 61.3811 142.876C60.6213 142.841 59.8635 142.785 59.1098 142.701C58.849 142.672 58.5882 142.643 58.3294 142.606C57.5655 142.507 56.8077 142.379 56.0602 142.229C55.7994 142.177 55.5386 142.119 55.2819 142.062C54.5083 141.884 53.7519 141.678 53.0126 141.443C52.7518 141.361 52.4889 141.274 52.2322 141.186C51.4498 140.914 50.69 140.609 49.9609 140.27C49.6981 140.151 49.4373 140.025 49.1847 139.895C48.8383 139.719 48.5001 139.536 48.1702 139.345C47.7266 139.087 47.3097 138.823 46.9134 138.547C46.6423 138.364 46.3815 138.172 46.133 137.976C45.2864 137.325 44.5235 136.571 43.8617 135.732C43.5768 135.366 43.3181 134.98 43.0875 134.577C40.6724 130.35 42.3666 125.508 48.1702 122.144C56.3641 117.403 69.6531 117.403 77.8511 122.144C80.1574 123.479 81.8105 125.046 82.8209 126.718C83.0894 127.16 83.3176 127.625 83.5027 128.109C84.1678 129.809 84.1656 131.699 83.4965 133.398Z" fill="#EF990F"/>
<path d="M42.0229 130.243C42.0229 130.145 42.0229 124.669 42.0229 124.669L48.5977 127.456L42.0229 130.243Z" fill="#EF990F"/>
<path d="M84.0001 124.669L83.994 130.284L80.2299 133.284L77.9312 128.134L84.0001 124.669Z" fill="#EF990F"/>
<path d="M44.046 127.709V135.818C43.8599 135.437 43.6909 135.036 43.5403 134.617V127.709H44.046Z" fill="#DD8910"/>
<path d="M47.0805 129.737V137.845C46.9048 137.663 46.7357 137.474 46.5747 137.28V129.737H47.0805Z" fill="#DD8910"/>
<path d="M50.1149 132.777V139.872C49.9436 139.763 49.7737 139.648 49.6091 139.53V132.777H50.1149Z" fill="#DD8910"/>
<path d="M53.1494 133.284V140.885C52.8114 140.807 52.4707 140.725 52.1379 140.642V133.294L53.1494 133.284Z" fill="#DD8910"/>
<path d="M56.1839 134.297V141.392C55.8449 141.345 55.506 141.292 55.1724 141.239V134.297H56.1839Z" fill="#DD8910"/>
<path d="M58.7125 134.804V142.912C58.5435 142.881 58.3745 142.849 58.2068 142.809V134.804H58.7125Z" fill="#DD8910"/>
<path d="M61.7472 134.804V142.912C61.5782 142.912 61.4105 142.897 61.2415 142.884V134.804H61.7472Z" fill="#DD8910"/>
<path d="M65.7931 134.804V142.875C65.29 142.89 64.7869 142.906 64.2759 142.912V134.811L65.7931 134.804Z" fill="#DD8910"/>
<path d="M67.8162 134.804V142.299C67.4781 142.338 67.1427 142.375 66.8047 142.405V134.804H67.8162Z" fill="#DD8910"/>
<path d="M71.3563 134.297V141.228C71.1891 141.287 71.0205 141.342 70.8506 141.392V134.297H71.3563Z" fill="#DD8910"/>
<path d="M74.3908 132.777V140.585C74.2242 140.69 74.0564 140.788 73.885 140.885V132.777H74.3908Z" fill="#DD8910"/>
<path d="M77.4253 131.257V139.429C77.0986 139.582 76.7599 139.731 76.4138 139.872V131.257H77.4253Z" fill="#DD8910"/>
<path d="M80.4597 128.723V137.148C80.1411 137.387 79.8048 137.618 79.4482 137.845V128.723H80.4597Z" fill="#DD8910"/>
<path d="M82.9884 126.189V133.181C82.8547 133.749 82.6852 134.293 82.4827 134.804V126.189H82.9884Z" fill="#DD8910"/>
<path d="M63.0115 136.324C74.6031 136.324 84 130.879 84 124.162C84 117.445 74.6031 112 63.0115 112C51.4198 112 42.0229 117.445 42.0229 124.162C42.0229 130.879 51.4198 136.324 63.0115 136.324Z" fill="#00A651"/>
<path d="M76.9909 146.167C69.2707 150.622 56.7543 150.622 49.0341 146.167L48.6725 145.959L48.5977 146.005V161.607C48.739 161.694 48.8844 161.781 49.0341 161.866C56.7543 166.324 69.2707 166.324 76.9909 161.866C77.1405 161.781 77.2819 161.692 77.4252 161.602V146L77.3484 145.953C77.232 146.027 77.1135 146.096 76.9909 146.167Z" fill="#ECE8F9"/>
<path d="M66.2988 152.832C60.8865 153.264 55.1676 152.664 50.6206 151.02V152.62C55.1676 154.26 60.8928 154.863 66.2988 154.433V152.832Z" fill="#50555C"/>
<path d="M66.2988 156.39C60.8865 156.943 55.1676 156.174 50.6206 154.061V156.118C55.1634 158.226 60.8865 159.002 66.2988 158.449V156.39Z" fill="#50555C"/>
<path d="M71.3562 151.499V157.608C71.7995 157.465 72.3556 157.283 72.8734 157.107V151.02H72.8524C72.3804 151.206 71.7785 151.384 71.3562 151.499Z" fill="#50555C"/>
<path d="M74.3907 152.541C72.7603 153.244 71.0656 153.771 69.3333 154.112V156.088C71.0656 155.747 72.7603 155.22 74.3907 154.517V152.541Z" fill="#50555C"/>
<defs>
<filter id="filter0_d_36_1640" x="167.825" y="23.1848" width="71.6423" height="67.8011" filterUnits="userSpaceOnUse" color-interpolation-filters="sRGB">
<feFlood flood-opacity="0" result="BackgroundImageFix"/>
<feColorMatrix in="SourceAlpha" type="matrix" values="0 0 0 0 0 0 0 0 0 0 0 0 0 0 0 0 0 0 127 0" result="hardAlpha"/>
<feOffset dy="4"/>
<feGaussianBlur stdDeviation="5"/>
<feColorMatrix type="matrix" values="0 0 0 0 1 0 0 0 0 0.352941 0 0 0 0 0.352941 0 0 0 0.2 0"/>
<feBlend mode="normal" in2="BackgroundImageFix" result="effect1_dropShadow_36_1640"/>
<feBlend mode="normal" in="SourceGraphic" in2="effect1_dropShadow_36_1640" result="shape"/>
</filter>
</defs>
</svg>
